<svg width="16" height="16" viewBox="0 0 16 16" fill="none" xmlns="http://www.w3.org/2000/svg">
<path d="M9.10678 10.738C9.07993 10.7114 9.04367 10.6965 9.00589 10.6965C8.9681 10.6965 8.93184 10.7114 8.90499 10.738L6.82999 12.813C5.86928 13.7737 4.24785 13.8755 3.18714 12.813C2.12464 11.7505 2.22642 10.1309 3.18714 9.17015L5.26214 7.09515C5.31749 7.03979 5.31749 6.94872 5.26214 6.89337L4.55142 6.18265C4.52457 6.15606 4.48832 6.14115 4.45053 6.14115C4.41274 6.14115 4.37649 6.15606 4.34964 6.18265L2.27464 8.25765C0.763923 9.76837 0.763923 12.213 2.27464 13.7219C3.78535 15.2309 6.22999 15.2327 7.73892 13.7219L9.81392 11.6469C9.86928 11.5916 9.86928 11.5005 9.81392 11.4452L9.10678 10.738ZM13.7246 2.27372C12.2139 0.763007 9.76928 0.763007 8.26035 2.27372L6.18357 4.34872C6.15698 4.37557 6.14207 4.41183 6.14207 4.44962C6.14207 4.4874 6.15698 4.52366 6.18357 4.55051L6.89249 5.25944C6.94785 5.31479 7.03892 5.31479 7.09428 5.25944L9.16928 3.18444C10.13 2.22372 11.7514 2.12194 12.8121 3.18444C13.8746 4.24694 13.7729 5.86658 12.8121 6.82729L10.7371 8.90229C10.7106 8.92914 10.6956 8.9654 10.6956 9.00319C10.6956 9.04097 10.7106 9.07723 10.7371 9.10408L11.4479 9.81479C11.5032 9.87015 11.5943 9.87015 11.6496 9.81479L13.7246 7.73979C15.2336 6.22908 15.2336 3.78444 13.7246 2.27372ZM9.75142 5.50408C9.72457 5.47749 9.68832 5.46258 9.65053 5.46258C9.61275 5.46258 9.57649 5.47749 9.54964 5.50408L5.50499 9.54694C5.47841 9.57379 5.46349 9.61004 5.46349 9.64783C5.46349 9.68562 5.47841 9.72187 5.50499 9.74872L6.21214 10.4559C6.26749 10.5112 6.35857 10.5112 6.41392 10.4559L10.4568 6.41301C10.5121 6.35765 10.5121 6.26658 10.4568 6.21122L9.75142 5.50408Z" fill="black" fill-opacity="0.45"/>
</svg>
