<svg width="10" height="15" viewBox="0 0 10 15" fill="none" xmlns="http://www.w3.org/2000/svg">
<path d="M0 14.5V2.01092C0 1.58872 0.134616 1.23135 0.403848 0.938808C0.673079 0.646269 1.00198 0.5 1.39054 0.5H8.60946C8.99802 0.5 9.32692 0.646269 9.59615 0.938808C9.86538 1.23135 10 1.58872 10 2.01092V14.5L5 12.1693L0 14.5ZM1.15383 12.5776L5 10.7806L8.84617 12.5776V2.01092C8.84617 1.94662 8.82151 1.88767 8.77221 1.83408C8.72289 1.7805 8.66863 1.75372 8.60946 1.75372H1.39054C1.33136 1.75372 1.27711 1.7805 1.22779 1.83408C1.17849 1.88767 1.15383 1.94662 1.15383 2.01092V12.5776Z" fill="#8C8C8C"/>
</svg>
