<svg width="70" height="22" viewBox="0 0 70 22" fill="none" xmlns="http://www.w3.org/2000/svg">
<g filter="url(#filter0_b_269_12143)">
<rect width="70" height="22" rx="4" fill="white" fill-opacity="0.5"/>
</g>
<mask id="mask0_269_12143" style="mask-type:alpha" maskUnits="userSpaceOnUse" x="25" y="1" width="20" height="20">
<rect x="25" y="1" width="20" height="20" fill="#D9D9D9"/>
</mask>
<g mask="url(#mask0_269_12143)">
<path d="M30.0007 19.334C29.5423 19.334 29.15 19.1708 28.8236 18.8444C28.4972 18.518 28.334 18.1257 28.334 17.6673V9.33398C28.334 8.87565 28.4972 8.48329 28.8236 8.1569C29.15 7.83051 29.5423 7.66732 30.0007 7.66732H30.834V6.00065C30.834 4.84787 31.2402 3.86523 32.0527 3.05273C32.8652 2.24023 33.8479 1.83398 35.0007 1.83398C36.1534 1.83398 37.1361 2.24023 37.9486 3.05273C38.7611 3.86523 39.1673 4.84787 39.1673 6.00065V7.66732H40.0007C40.459 7.66732 40.8513 7.83051 41.1777 8.1569C41.5041 8.48329 41.6673 8.87565 41.6673 9.33398V17.6673C41.6673 18.1257 41.5041 18.518 41.1777 18.8444C40.8513 19.1708 40.459 19.334 40.0007 19.334H30.0007ZM30.0007 17.6673H40.0007V9.33398H30.0007V17.6673ZM35.0007 15.1673C35.459 15.1673 35.8513 15.0041 36.1777 14.6777C36.5041 14.3513 36.6673 13.959 36.6673 13.5007C36.6673 13.0423 36.5041 12.65 36.1777 12.3236C35.8513 11.9972 35.459 11.834 35.0007 11.834C34.5423 11.834 34.15 11.9972 33.8236 12.3236C33.4972 12.65 33.334 13.0423 33.334 13.5007C33.334 13.959 33.4972 14.3513 33.8236 14.6777C34.15 15.0041 34.5423 15.1673 35.0007 15.1673ZM32.5007 7.66732H37.5007V6.00065C37.5007 5.30621 37.2576 4.71593 36.7715 4.22982C36.2854 3.74371 35.6951 3.50065 35.0007 3.50065C34.3062 3.50065 33.7159 3.74371 33.2298 4.22982C32.7437 4.71593 32.5007 5.30621 32.5007 6.00065V7.66732Z" fill="#4800FF"/>
</g>
<defs>
<filter id="filter0_b_269_12143" x="-8" y="-8" width="86" height="38" filterUnits="userSpaceOnUse" color-interpolation-filters="sRGB">
<feFlood flood-opacity="0" result="BackgroundImageFix"/>
<feGaussianBlur in="BackgroundImageFix" stdDeviation="4"/>
<feComposite in2="SourceAlpha" operator="in" result="effect1_backgroundBlur_269_12143"/>
<feBlend mode="normal" in="SourceGraphic" in2="effect1_backgroundBlur_269_12143" result="shape"/>
</filter>
</defs>
</svg>
